<svg width="32" height="32" viewBox="0 0 32 32" fill="none" xmlns="http://www.w3.org/2000/svg">
<path d="M13.334 2.6665V5.33317" stroke="#4A77FF" stroke-width="2.66667" stroke-linecap="round" stroke-linejoin="round"/>
<path d="M18.666 2.6665V5.33317" stroke="#4A77FF" stroke-width="2.66667" stroke-linecap="round" stroke-linejoin="round"/>
<path d="M21.3333 10.6665C21.687 10.6665 22.0261 10.807 22.2761 11.057C22.5262 11.3071 22.6667 11.6462 22.6667 11.9998V22.6665C22.6667 24.081 22.1048 25.4375 21.1046 26.4377C20.1044 27.4379 18.7478 27.9998 17.3333 27.9998H9.33333C7.91885 27.9998 6.56229 27.4379 5.5621 26.4377C4.5619 25.4375 4 24.081 4 22.6665V11.9998C4 11.6462 4.14048 11.3071 4.39052 11.057C4.64057 10.807 4.97971 10.6665 5.33333 10.6665H24C25.4145 10.6665 26.771 11.2284 27.7712 12.2286C28.7714 13.2288 29.3333 14.5853 29.3333 15.9998C29.3333 17.4143 28.7714 18.7709 27.7712 19.7711C26.771 20.7713 25.4145 21.3332 24 21.3332H22.6667" stroke="#4A77FF" stroke-width="2.66667" stroke-linecap="round" stroke-linejoin="round"/>
<path d="M8 2.6665V5.33317" stroke="#4A77FF" stroke-width="2.66667" stroke-linecap="round" stroke-linejoin="round"/>
</svg>
