<svg width="37" height="37" viewBox="0 0 37 37" fill="none" xmlns="http://www.w3.org/2000/svg">
<path d="M29.291 24.6667C28.1378 24.6667 27.0356 25.0151 26.1861 25.6534C25.3351 26.2901 24.666 27.2875 24.666 28.5209C24.666 29.7542 25.3351 30.7517 26.1861 31.3884C27.034 32.0266 28.1378 32.375 29.291 32.375C30.4442 32.375 31.5465 32.0266 32.3959 31.3884C33.2469 30.7532 33.916 29.7542 33.916 28.5209C33.916 27.2875 33.2469 26.2901 32.3959 25.6534C31.548 25.0136 30.4442 24.6667 29.291 24.6667ZM17.0764 4.44775C14.7839 4.44775 12.7551 5.56855 11.5064 7.29059C10.0792 6.96153 8.58421 7.09657 7.23911 7.67607C5.894 8.25556 4.76897 9.24926 4.02778 10.5125C3.28659 11.7757 2.96795 13.2426 3.11823 14.6995C3.2685 16.1563 3.87986 17.5272 4.86331 18.6126C4.89155 19.7472 5.20008 20.8571 5.76139 21.8435C6.32269 22.8299 7.11934 23.6621 8.08031 24.266C9.04129 24.8698 10.1367 25.2264 11.269 25.3042C12.4013 25.3819 13.5352 25.1783 14.5696 24.7114C15.3948 25.3686 16.3601 25.8273 17.3909 26.0518C18.4216 26.2764 19.4902 26.2609 20.514 26.0065C21.5378 25.7521 22.4894 25.2657 23.2951 24.5848C24.1009 23.9039 24.7393 23.0468 25.1609 22.0798C26.5209 21.4876 27.653 20.4717 28.3885 19.1836C29.124 17.8954 29.4233 16.4041 29.242 14.9319C29.0607 13.4597 28.4083 12.0855 27.3822 11.0144C26.3562 9.94322 25.0113 9.23241 23.5483 8.98796C23.0678 7.65753 22.1887 6.50767 21.0307 5.69516C19.8728 4.88266 18.4925 4.44706 17.0779 4.44775H17.0764Z" fill="black"/>
</svg>
