<svg width="37" height="37" viewBox="0 0 37 37" fill="none" xmlns="http://www.w3.org/2000/svg">
<path d="M7.70898 24.6667C8.86215 24.6667 9.96444 25.0151 10.8139 25.6534C11.6649 26.2901 12.334 27.2875 12.334 28.5209C12.334 29.7542 11.6649 30.7517 10.8139 31.3884C9.96598 32.0266 8.86215 32.375 7.70898 32.375C6.55582 32.375 5.45353 32.0266 4.60407 31.3884C3.75307 30.7532 3.08398 29.7542 3.08398 28.5209C3.08398 27.2875 3.75307 26.2901 4.60407 25.6534C5.45198 25.0136 6.55582 24.6667 7.70898 24.6667ZM19.9236 4.44775C22.2161 4.44775 24.2449 5.56855 25.4936 7.29059C26.9208 6.96153 28.4158 7.09657 29.7609 7.67607C31.106 8.25556 32.231 9.24926 32.9722 10.5125C33.7134 11.7757 34.0321 13.2426 33.8818 14.6995C33.7315 16.1563 33.1201 17.5272 32.1367 18.6126C32.1084 19.7472 31.7999 20.8571 31.2386 21.8435C30.6773 22.8299 29.8807 23.6621 28.9197 24.266C27.9587 24.8698 26.8633 25.2264 25.731 25.3042C24.5987 25.3819 23.4648 25.1783 22.4304 24.7114C21.6052 25.3686 20.6399 25.8273 19.6091 26.0518C18.5784 26.2764 17.5098 26.2609 16.486 26.0065C15.4622 25.7521 14.5106 25.2657 13.7049 24.5848C12.8991 23.9039 12.2607 23.0468 11.8391 22.0798C10.4791 21.4876 9.34698 20.4717 8.61151 19.1836C7.87605 17.8954 7.57666 16.4041 7.758 14.9319C7.93933 13.4597 8.59168 12.0855 9.61775 11.0144C10.6438 9.94322 11.9887 9.23241 13.4517 8.98796C13.9322 7.65753 14.8113 6.50767 15.9693 5.69516C17.1272 4.88266 18.5075 4.44706 19.9221 4.44775H19.9236Z" fill="black"/>
</svg>
